Patient4_TMGait_0pt5_02_left_27_EMG.mot
version=1
nRows=30
nColumns=33
inDegrees=no
endheader
time	1LAddLong	2LGlutMax	3LGlutMed	4LIliopsoas	5LSemiMemb	6LBicFemLong	7LRecFem	8LVastMed	9LVastLat	10LGasMed	11LTibAnt	12lTibPost	13LPeroneusLong	14LSol	15LExtDigLong	16LFlexDigLong	17RAddLong	18RGlutMax	19RGlutMed	20RIliopsoas	21RSemiMemb	22RBicFemLong	23RRecFem	24RVastMed	25RVastLat	26RGasMed	27RTibAnt	28RTibPost	29RPeroneusLong	30RSol	31RExtDigLong	32RFlexDigLong
35.873	0.011292	-0.10941	-0.06073	0.013123	-0.007935	-0.033722	-0.018005	0.007324	0.15442	0.093994	0.07782	0.004578	0.091095	0.037384	0.009155	0.023499	-0.003815	-0.16281	-0.21088	0.004578	-0.013428	0.03479	-0.064087	-0.16586	0.009003	0.00061	0.177	0.000153	-0.13458	-0.031738	-0.008392	-0.005646
35.874	0.011902	-0.11337	-0.055542	0.007629	-0.022888	-0.021362	-0.028839	-0.001221	0.15228	0.12573	0.046082	0.002594	0.072784	0.01236	0.009766	0.00946	-0.012512	-0.15411	-0.2739	0.027161	-0.015259	0.039215	-0.25894	-0.22873	0.005188	-0.022278	0.34195	0.000153	0.81634	0.24582	-0.001068	-0.009308
35.875	0.006409	-0.16007	-0.033569	-0.009155	-0.039215	-0.024567	-0.025024	0.005493	0.15106	0.15732	-0.078278	0.010529	0.075684	0.005951	0.028381	0.007477	0.002747	-0.19272	0.006866	0.019073	-0.013123	0.00885	-0.13672	-0.15884	-0.000458	-0.024261	0.19791	-0.00885	0.90118	0.26535	-0.001678	-0.005798
35.876	0.011597	-0.14893	-0.040283	-0.006104	-0.0383	-0.056763	-0.037537	0.003815	0.1474	0.078278	-0.041962	0.014648	0.036774	-0.014648	-0.048676	0.009003	0.015564	-0.19257	0.094452	-0.009308	-0.019684	-0.050507	-0.10819	-0.047913	0.017853	-0.0177	-0.077515	-0.000763	0.091553	0.23407	-0.003052	-0.010834
35.877	0.010529	-0.17609	-0.06424	0.009308	-0.000458	-0.047455	-0.02655	0.007782	0.15106	0.013885	-0.026245	0.016022	0.017853	-0.038757	-0.072784	0.007019	0.010681	-0.21805	0.1474	-0.027313	-0.015411	-0.05188	-0.12146	-0.041046	0.000458	-0.01709	-0.014496	0.001068	-1.0472	0.20813	-0.00412	-0.003052
35.878	0.010071	-0.2121	-0.079346	0.028687	0.018768	-0.037994	-0.031891	0.010986	0.13992	-0.045929	-0.017853	0.009918	0.013123	-0.049133	-0.007629	0.016937	0.007172	-0.23422	-0.31662	0.02655	0.005798	-0.031433	-0.088654	-0.06485	-0.020294	0.005188	0.11749	-0.001068	-0.42145	0.076294	-0.003357	0.001373
35.879	0.014191	-0.19623	-0.007172	0.007324	0.005035	-0.049591	-0.035858	0.006104	0.1181	-0.13107	-0.010376	0.014648	0.022278	-0.02594	0.066986	0.004883	0.010681	-0.27649	-0.60104	0.008545	0.016022	0.000916	-0.010223	-0.062714	0.026855	0.010681	-0.025482	0.002747	0.19684	0.088043	-0.001831	-0.001526
35.88	0.005188	-0.2002	-0.017853	0.002594	0.003967	-0.063629	-0.037689	0.005493	0.12192	-0.11185	-0.014954	0.007935	0.042267	-0.005798	0.03067	0.013123	-0.007782	-0.29953	-0.23102	0.045776	-0.048828	0.10223	0.064545	-0.022583	0.094147	0.008087	-0.25314	-0.00351	0.38788	0.070343	0.005646	-0.002441
35.881	0.005646	-0.16602	-0.015564	0.00061	0.011444	-0.038452	-0.051575	0.007629	0.11108	-0.059509	0.000458	0.014801	0.06897	-0.02243	0.00061	0.014038	-0.02533	-0.20279	0.53863	0.052032	-0.12268	0.11139	0.099182	0.054169	0.11963	-0.006714	-0.20371	-0.004425	0.19089	0.15503	0.002747	0.000916
35.882	0.011139	-0.17349	-0.019073	-0.005341	-0.003357	-0.037842	-0.049591	0.005798	0.10269	-0.020447	0.002747	0.016937	0.062561	-0.05188	-0.005188	0.002747	-0.015411	-0.16907	0.61874	0.046997	-0.073547	0.037842	0.17105	0.046234	0.0737	-0.011292	-0.16281	0.000153	0.74417	0.25559	-0.006256	0.000763
35.883	0.001221	-0.17624	-0.038452	-0.005341	-0.024109	-0.045929	-0.045013	0.005035	0.092926	0.023193	0.015564	0.008392	0.059509	-0.064545	0.011444	0.012817	-0.00061	-0.16327	0.61844	-0.039215	-0.035553	0.008545	0.18387	-0.02594	0.052795	0.002136	-0.17593	-0.004272	0.37293	0.14816	-0.003357	0.003052
35.884	0.007324	-0.16159	-0.038452	-0.000763	-0.02655	-0.058594	-0.04425	0.007629	0.09201	0.032654	0.014954	0.01709	0.036316	-0.028076	0.011749	0.018005	0.014038	-0.19699	0.97595	-0.063171	0.001984	0.067749	0.15274	-0.032959	-0.046387	0.006561	-0.076447	0.000305	0.48614	0.082703	0.009918	-0.003357
35.885	0.007172	-0.1683	0.03418	0.000916	-0.040741	-0.071259	-0.035553	0.008698	0.090942	0.031128	0.021515	0.015411	0.04715	0.02243	0.027161	0.022888	0.018463	-0.2092	0.10895	-0.029755	0.051117	0.049896	-0.11459	-0.039063	-0.18173	0.008087	-0.021973	0	0.81634	0.060272	-0.001221	0.000916
35.886	0.013123	-0.17288	0.00946	-0.002899	0.003815	-0.08667	-0.031433	0.015717	0.084229	0.014648	0.018616	0.010681	0.063629	0.053406	0.042572	0.009155	0.009766	-0.2446	0.065002	0.009155	0.057068	0.031738	-0.25391	-0.069427	-0.18524	0.011597	-0.063934	0.001526	0.61691	0.072784	-0.001373	-0.00885
35.887	0.019073	-0.18402	-0.017548	0.002136	0.044556	-0.085602	-0.047302	0.005035	0.077972	0.004272	0.031586	0.016327	0.071411	0.080872	0.037842	0.023804	-0.001678	-0.27908	-0.35339	-0.010223	-0.041656	0.064697	-0.26825	-0.058136	-0.088043	0.002899	-0.04715	0.000916	-0.23453	-0.003967	-0.00885	-0.007629
35.888	0.012665	-0.18829	-0.040436	0.007019	0.038757	-0.054932	-0.042267	0.005493	0.081482	0.007782	0.025024	0.014801	0.077667	0.043488	0.022278	0.018005	0.003815	-0.20721	-0.40924	0.000763	-0.15884	0.006256	-0.19409	0.074615	0.072327	-0.009003	0.14801	-0.00061	-1.3399	-0.005341	0.002441	-0.011139
35.889	0.014038	-0.19302	-0.07309	0.011292	0.004578	-0.027313	-0.024872	0.003357	0.077209	-0.003357	0.023041	0.020447	0.083008	-0.029297	0.005035	0.014496	0.001068	-0.21149	-0.31418	0.033722	-0.070953	-0.093536	0.014038	0.00473	0.086365	-0.002136	0.071564	-0.000153	-0.75775	0.037384	-0.004578	-0.007629
35.89	0.017853	-0.15762	-0.11536	0.010986	-0.001373	-0.033875	-0.018005	0.012512	0.072021	-0.002899	0.018158	0.010071	0.10483	-0.017242	0.000916	0.02121	0.008698	-0.21866	-0.3244	0.085297	-0.017853	-0.090637	0.001831	-0.081482	0.069885	-0.004272	0.067902	-0.003662	-0.63156	0.13779	-0.001831	-0.012512
35.891	0.010071	-0.17181	-0.10803	0.006104	0.000305	-0.043182	-0.009308	0.00824	0.07019	0.006561	0.009766	0.006104	0.12543	-0.02243	-0.002594	0.022278	-0.005188	-0.23025	-0.34088	0.11459	-0.017853	-0.016174	-0.042267	-0.02182	0.046997	-0.00885	0.065308	-0.000305	-0.18585	0.097198	-0.002747	-0.012817
35.892	0.007324	-0.18021	-0.061493	0.011444	0.033112	-0.027924	-0.013428	0.011597	0.076141	0.001373	0.022736	0.011292	0.11978	0.011749	-0.016327	0.024872	-0.006409	-0.22278	0.37231	0.063171	-0.026703	0.0354	0.026855	0.005035	0.04303	-0.010223	0.067596	-0.00061	-0.36606	0.046997	-0.004425	-0.005798
35.893	0.00885	-0.1741	-0.066528	-0.010071	0.034637	-0.021515	-0.025635	0.010376	0.077209	-0.002747	0.026245	0.010223	0.12253	0.064087	-0.006256	0.012207	-0.006409	-0.24521	0.046082	0.040588	-0.06134	0.058746	0.023346	0.014038	0.085754	-0.015259	0.052185	-0.001678	-0.64667	0.049896	-0.000916	-0.013428
35.894	0.015411	-0.17197	-0.072784	0.001984	-0.05661	-0.045776	-0.02121	0.007019	0.076447	-0.011749	0.022125	0.009308	0.11459	-0.009918	-0.003967	0.014801	-0.000458	-0.23926	-0.6221	-0.009766	-0.082397	0.046997	-0.020447	0.005341	0.071564	-0.012207	0.058289	0.000763	-0.52933	0.073395	0.000153	0.000305
35.895	0.016022	-0.15595	-0.070801	-0.000916	-0.17395	-0.11871	-0.020142	0.005646	0.079803	-0.002136	0.018616	0.006409	0.1033	-0.15182	0.004272	0.010376	0.017853	-0.1442	-0.35431	-0.037537	-0.039215	0.04776	0.016632	-0.046844	-0.040131	-0.007782	0.023193	-0.001984	0.24567	0.1384	0.000763	0.001373
35.896	0.018768	-0.16007	-0.065308	0.019684	-0.016785	-0.15457	-0.007935	0.006866	0.078278	-0.013428	0.028076	0.008087	0.054932	-0.25253	0.003662	-0.01297	0.006714	-0.12344	0.58746	-0.13214	0.10681	0.022888	-0.034485	-0.099335	-0.14358	0.006256	0.038757	0.001221	0.94955	-0.021057	-0.007477	0.001526
35.897	0.024567	-0.13458	-0.091705	0.014038	0.10834	-0.095367	-0.002899	0.009766	0.072632	-0.027924	0.032349	0.025177	0.06012	-0.3688	0.02533	-0.011139	0.019836	-0.088348	0.98846	-0.091095	0.097809	-0.006561	0.069885	-0.080109	-0.16266	0.001984	0.19363	-0.003357	-0.3772	-0.11078	-0.005188	0.009003
35.898	0.021362	-0.14175	-0.10208	0.015869	0.074005	-0.053253	-0.001984	0.011749	0.066681	-0.05249	0.03952	0.019684	0.083008	-0.32028	0.0354	-0.005798	0.001984	-0.11581	0.77682	0.011292	0.013733	0.041962	0.10407	-0.065613	-0.18036	0.004425	0.005951	-0.005951	-0.88776	-0.086212	-0.003357	0.01236
35.899	0.017548	-0.18829	-0.074921	-0.0177	0.05661	-0.06546	0.004272	0.00946	0.064697	-0.054626	0.033569	0.017242	0.10559	-0.2919	0.011444	0.002747	-0.005341	-0.20554	0.13473	0.028381	-0.072479	0.095062	0.089264	-0.057373	-0.12451	-0.005341	-0.16571	-0.001526	-0.16937	-0.024567	-0.004578	0.00351
35.9	0.01297	-0.17197	-0.040588	-0.014954	0.029297	-0.040894	0.005035	0.010223	0.061798	-0.041504	0.031281	0.018158	0.10819	-0.23361	-0.004272	0.002289	-0.005341	-0.112	-0.10757	0.021057	-0.037231	0.11414	0.001221	0.092316	0.039063	0.001984	-0.17914	-0.00351	0.14587	-0.057678	-0.004578	0.00061
35.901	0.008698	-0.17716	0.00946	-0.009918	0.011139	-0.050964	0.018921	0.009003	0.054321	-0.044403	0.027771	0.012512	0.11063	-0.018005	-0.008087	0.011292	0.007172	-0.10071	-0.3183	-0.002441	-0.037079	0.054474	0.13107	0.15289	0.052185	0.001831	0.01297	-0.00824	-0.084686	-0.052795	-0.000916	0.002136
35.902	0.008392	-0.18372	-0.014648	0.020294	0.028687	-0.036621	0.018005	0.015106	0.062866	-0.041199	0.020142	0.012665	0.11154	0.12177	-0.013123	0.00412	0.007172	-0.072784	-0.14923	-0.028534	0.11856	-0.069885	0.26032	0.035095	-0.031738	0.000763	0.062561	-0.007477	0.13565	-0.034943	-0.002136	-0.001831
